<svg width="12" height="8" viewBox="0 0 12 8" fill="none" xmlns="http://www.w3.org/2000/svg">
<path d="M9.53674e-07 1.57006C9.53674e-07 1.86306 0.104348 2.09873 0.313045 2.30255L5.1 7.09873C5.38043 7.37261 5.65435 7.49363 6 7.5C6.33913 7.5 6.62609 7.37261 6.9 7.09873L11.6935 2.30892C11.8957 2.09873 12 1.85669 12 1.57006C12 0.984076 11.5174 0.5 10.9174 0.5C10.6174 0.5 10.3435 0.627389 10.1152 0.843949L5.99348 5.00318L1.88478 0.843949C1.65652 0.621019 1.38261 0.5 1.08261 0.5C0.489131 0.5 9.53674e-07 0.984076 9.53674e-07 1.57006Z" fill="#E8E8E8"/>
</svg>
