<svg width="17" height="16" viewBox="0 0 17 16" fill="none" xmlns="http://www.w3.org/2000/svg">
<path fill-rule="evenodd" clip-rule="evenodd" d="M8.5 0.0833335C4.12775 0.0833335 0.583328 3.62776 0.583328 8C0.583328 12.3722 4.12775 15.9167 8.5 15.9167C12.8722 15.9167 16.4167 12.3722 16.4167 8C16.4167 3.62776 12.8722 0.0833335 8.5 0.0833335ZM8.5 14.3333C5.0078 14.3333 2.16666 11.4922 2.16666 8C2.16666 4.50781 5.0078 1.66667 8.5 1.66667C11.9922 1.66667 14.8333 4.50781 14.8333 8C14.8333 11.4922 11.9922 14.3333 8.5 14.3333ZM11.4812 5.17157L12.6007 6.29103L7.70833 11.2039L4.7736 8.26913L5.89306 7.14967L7.70833 8.96494L11.4812 5.17157Z" fill="#88D7A5"/>
</svg>
